<?xml version="1.0" encoding="UTF-8" standalone="no"?>
<!-- Created with Inkscape (http://www.inkscape.org/) -->

<svg
   xmlns:dc="http://purl.org/dc/elements/1.1/"
   xmlns:cc="http://creativecommons.org/ns#"
   xmlns:rdf="http://www.w3.org/1999/02/22-rdf-syntax-ns#"
   xmlns:svg="http://www.w3.org/2000/svg"
   xmlns="http://www.w3.org/2000/svg"
   xmlns:sodipodi="http://sodipodi.sourceforge.net/DTD/sodipodi-0.dtd"
   xmlns:inkscape="http://www.inkscape.org/namespaces/inkscape"
   width="100"
   height="48"
   viewBox="0 0 100 48.000004"
   id="svg2"
   version="1.1"
   inkscape:version="0.92.3 (2405546, 2018-03-11)"
   sodipodi:docname="Destination America logo.svg">
  <title
     id="title4161">Science Channel logo</title>
  <defs
     id="defs4">
    <pattern
       y="0"
       x="0"
       height="6"
       width="6"
       patternUnits="userSpaceOnUse"
       id="EMFhbasepattern" />
    <clipPath
       id="clipPath2332"
       clipPathUnits="userSpaceOnUse">
      <path
         style="clip-rule:nonzero"
         inkscape:connector-curvature="0"
         d="m 218.80915,851.06708 c 0,-8.80815 7.14323,-15.94966 15.95138,-15.94966 8.81144,0 15.95123,7.14151 15.95123,15.94966 0,8.80816 -7.13979,15.95131 -15.95123,15.95131 -8.80815,0 -15.95138,-7.14315 -15.95138,-15.95131"
         id="path2334" />
    </clipPath>
  </defs>
  <sodipodi:namedview
     id="base"
     pagecolor="#ffffff"
     bordercolor="#666666"
     borderopacity="1.0"
     inkscape:pageopacity="0.0"
     inkscape:pageshadow="2"
     inkscape:zoom="1"
     inkscape:cx="47.96366"
     inkscape:cy="29.091749"
     inkscape:document-units="px"
     inkscape:current-layer="layer1"
     showgrid="false"
     units="px"
     inkscape:showpageshadow="false"
     inkscape:window-width="1366"
     inkscape:window-height="705"
     inkscape:window-x="-8"
     inkscape:window-y="-8"
     inkscape:window-maximized="1"
     objecttolerance="1"
     gridtolerance="1">
    <inkscape:grid
       type="xygrid"
       id="grid53" />
  </sodipodi:namedview>
  <metadata
     id="metadata7">
    <rdf:RDF>
      <cc:Work
         rdf:about="">
        <dc:format>image/svg+xml</dc:format>
        <dc:type
           rdf:resource="http://purl.org/dc/dcmitype/StillImage" />
        <dc:title>Science Channel logo</dc:title>
        <cc:license
           rdf:resource="http://scripts.sil.org/OFL" />
      </cc:Work>
      <cc:License
         rdf:about="http://scripts.sil.org/OFL">
        <cc:permits
           rdf:resource="http://scripts.sil.org/pub/OFL/Reproduction" />
        <cc:permits
           rdf:resource="http://scripts.sil.org/pub/OFL/Distribution" />
        <cc:permits
           rdf:resource="http://scripts.sil.org/pub/OFL/Embedding" />
        <cc:permits
           rdf:resource="http://scripts.sil.org/pub/OFL/DerivativeWorks" />
        <cc:requires
           rdf:resource="http://scripts.sil.org/pub/OFL/Notice" />
        <cc:requires
           rdf:resource="http://scripts.sil.org/pub/OFL/Attribution" />
        <cc:requires
           rdf:resource="http://scripts.sil.org/pub/OFL/ShareAlike" />
        <cc:requires
           rdf:resource="http://scripts.sil.org/pub/OFL/DerivativeRenaming" />
        <cc:requires
           rdf:resource="http://scripts.sil.org/pub/OFL/BundlingWhenSelling" />
      </cc:License>
    </rdf:RDF>
  </metadata>
  <g
     inkscape:label="Capa 1"
     inkscape:groupmode="layer"
     id="layer1"
     transform="translate(0,-1004.3622)">
    <g
       id="g4140"
       transform="matrix(0.04059654,0,0,0.04059654,-20.030469,954.73085)">
      <path
         style="fill:#529ee9;fill-opacity:1;stroke:none"
         d="m 2526.0223,1552.4759 87.5566,1e-4 v -47.1137 c 0,-31.9939 -9.7747,-68.0328 -37.0994,-97.6085 -25.6716,-27.212 -63.653,-41.0025 -101.692,-41.0025 -50.1088,0 -82.5007,19.9086 -102.8633,39.7547 -26.1732,27.1316 -41.2918,58.0598 -41.2918,105.8561 v 340 c 0,45.0338 13.7046,75.2566 39.2163,102.6642 29.2232,28.0119 62.0418,38.9035 107.1606,38.9035 47.7821,0 77.9236,-22.6711 97.7541,-41.4401 23.4623,-23.8617 38.8155,-55.2397 38.8155,-100.1276 v -37 h -87.5566 v 37.9634 c 0,29.6257 -18.3678,52.6759 -52.9513,52.6759 -15.6382,0 -29.4034,-3.6583 -40.1092,-15.3471 -10.2343,-11.174 -14.9395,-32.0896 -14.9395,-42.2922 v -329 c 0,-22.1436 9.7124,-45.2048 17.4538,-52.0621 9.5481,-8.5152 20.2329,-12.3262 37.9849,-12.3262 33.4273,0 52.5613,27.9978 52.5613,61.3883 z"
         id="path4157"
         inkscape:connector-curvature="0"
         sodipodi:nodetypes="ccccccccccccccccscccccc" />
      <path
         style="fill:#529ee9;fill-opacity:1;fill-rule:evenodd;stroke:none"
         d="m 1359.2434,2911.8658 h 129 v -43.4766 h -82 v -88 h 65 v -44 h -65 v -84 h 82 v -45.197 h -129 l -19,20.197 v 268 z"
         id="path4159"
         inkscape:connector-curvature="0"
         transform="matrix(2.0232975,0,0,2.0232975,-1110.1538,-3901.764)"
         sodipodi:nodetypes="ccccccccccccccc" />
      <path
         style="fill:#529ee9;fill-opacity:1;fill-rule:evenodd;stroke:none"
         d="M 1518.2434,2911.8658 V 2607.19 h 59 l 49.5581,185.5117 V 2607.19 h 42.4419 v 305.1992 h -49 l -59.4375,-222.125 v 220.4766 z"
         id="path4161"
         inkscape:connector-curvature="0"
         transform="matrix(2.0232975,0,0,2.0232975,-1110.1538,-3901.764)"
         sodipodi:nodetypes="ccccccccccc" />
      <path
         sodipodi:nodetypes="ccccccccccccc"
         inkscape:connector-curvature="0"
         id="path4180"
         d="m 2671.8816,1989.8068 h 261.0054 v -87.9661 h -165.9104 v -178.0502 h 131.5144 v -89.0251 h -131.5144 v -169.957 h 165.9104 v -91.4469 h -261.0054 z"
         style="fill:#529ee9;fill-opacity:1;fill-rule:evenodd;stroke:none" />
      <path
         transform="translate(1118.7566,506.97294)"
         inkscape:connector-curvature="0"
         id="path4092"
         d="m -607.7566,1874.3892 v -866 l 263,-262.99996 h 866 v 870.99996 l -258,258 z"
         style="fill:#529ee9;fill-opacity:1;stroke:none" />
      <path
         sodipodi:nodetypes="cccccccccccccccccccczccccccccc"
         transform="translate(1118.7566,506.97294)"
         inkscape:connector-curvature="0"
         id="path4084"
         d="m -319.7566,1308.3892 h 87 v 16.7701 c 0,9.6885 -3.77626,73.8436 63.87843,73.8436 22.59062,0 35.88132,-5.0751 47.12157,-15.6137 9.41248,-8.9943 16.98321,-21.1551 16.98321,-78.0482 0,-37.6443 -1.79673,-57.5497 -15.98321,-72.3279 -6.95849,-7.1774 -24.37602,-15.7659 -52,-26.6239 l -57.50023,-23.9233 c -18.95445,-8.9242 -35.25506,-19.6511 -49.77549,-34.5804 -21.80004,-23.1628 -35.17016,-61.4536 -35.17016,-117.9882 0,-49.32583 13.61814,-99.44452 47.30201,-131.37561 25.13007,-23.08956 55.83735,-38.76109 104.36542,-38.76109 50.05249,0 83.523084,20.99451 106.622571,43.58531 26.737609,30.5881 36.662783,59.3647 36.662783,93.30833 v 48.73496 H -107.7566 v -26 c 0,-28.09608 -8.50422,-71.40818 -59.88083,-71.40818 -38.49754,0 -59.53357,24.22796 -59.53357,81.12458 0,26.2858 1.35532,41.2004 9.66221,53.9964 8.30689,12.796 24.42746,19.1763 37.1673,25.8193 l 71.7045,28.1231 c 24.170148,9.9106 41.516026,19.8202 55.88039,34.3448 25.005553,25.5673 36.158289,60.908 36.158289,133.0144 0,61.912 -11.81819,112.3173 -46.158289,145.9856 -24.457802,22.4649 -55.68328,36.5406 -104.96355,36.5406 -50.18276,0 -84.16026,-17.9625 -111.03645,-44.5406 -26.87619,-26.578 -41,-62.5895 -41,-99 z"
         style="fill:#ffffff;stroke:none" />
      <rect
         transform="translate(1118.7566,506.97294)"
         y="866.38922"
         x="359.24341"
         height="616.44897"
         width="86.999992"
         id="rect4086"
         style="fill:#ffffff;stroke:none" />
      <path
         sodipodi:nodetypes="ccccccccccccccccscccccc"
         inkscape:connector-curvature="0"
         id="path4090"
         d="m 221.2434,1045.503 87.5566,10e-5 v -47.11373 c 0,-31.99391 -9.7747,-68.03281 -37.09943,-97.60853 -25.67156,-27.21199 -63.65294,-41.00248 -101.69195,-41.00248 -50.10881,0 -82.500691,19.90862 -102.863329,39.75472 -26.173127,27.13155 -41.291817,58.05976 -41.291817,105.85612 v 340 c 0,45.0338 13.704619,75.2566 39.216318,102.6642 29.223212,28.0119 62.041818,38.9035 107.160608,38.9035 47.78208,0 77.92357,-22.6711 97.75409,-41.4401 C 293.44685,1421.6551 308.8,1390.2771 308.8,1345.3892 v -37 h -87.5566 v 37.9634 c 0,29.6257 -18.36777,52.6759 -52.95125,52.6759 -15.63828,0 -29.40341,-3.6583 -40.10919,-15.3471 -10.23431,-11.174 -14.93956,-32.0896 -14.93956,-42.2922 v -329 c 0,-22.14366 9.71243,-45.20484 17.45386,-52.0621 9.54807,-8.51521 20.23281,-12.3262 37.98481,-12.3262 33.42733,0 52.56133,27.9978 52.56133,61.3883 z"
         style="fill:#ffffff;stroke:none"
         transform="translate(1118.7566,506.97294)" />
    </g>
  </g>
</svg>
